<svg width="32" height="32" viewBox="0 0 32 32" fill="none" xmlns="http://www.w3.org/2000/svg">
<path d="M23.4343 16.8501C23.4462 15.8274 23.7177 14.8245 24.2233 13.9354C24.7289 13.0463 25.452 12.3002 26.3249 11.7671C25.7698 10.9759 25.0381 10.3249 24.1877 9.86572C23.3373 9.4065 22.3916 9.1517 21.4256 9.12151C19.3802 8.90105 17.3837 10.3463 16.3304 10.3463C15.277 10.3463 13.648 9.12151 11.9088 9.12151C10.785 9.15807 9.6899 9.48534 8.73034 10.0714C7.77078 10.6574 6.97954 11.4822 6.43383 12.4653C4.11892 16.6174 5.83367 22.6068 8.09959 25.9628C9.23867 27.5918 10.5492 29.4045 12.3007 29.331C14.0522 29.2576 14.6279 28.2532 16.6856 28.2532C18.7433 28.2532 19.3067 29.331 21.0827 29.2943C22.8587 29.2575 24.059 27.6653 25.1491 26.024C25.9672 24.8696 26.5957 23.592 27.0108 22.2393C25.9512 21.7917 25.0469 21.0419 24.4108 20.0834C23.7747 19.125 23.4351 18.0004 23.4343 16.8501V16.8501Z" fill="#373737"/>
<path d="M20.0414 6.94112C21.0346 5.74804 21.5225 4.21415 21.4009 2.6665C19.8827 2.83036 18.4805 3.5555 17.4692 4.6997C16.9773 5.26018 16.6008 5.91216 16.3612 6.61834C16.1216 7.32452 16.0237 8.07101 16.0729 8.8151C16.833 8.82259 17.5848 8.65788 18.2721 8.33333C18.9594 8.00878 19.5643 7.53281 20.0414 6.94112V6.94112Z" fill="#373737"/>
</svg>
